<svg width="11" height="11" viewBox="0 0 11 11" fill="none" xmlns="http://www.w3.org/2000/svg">
<path fill-rule="evenodd" clip-rule="evenodd" d="M0.329352 10.2232C0.49334 10.3872 0.715756 10.4793 0.94767 10.4793C1.17958 10.4793 1.402 10.3872 1.56599 10.2232L8.72981 3.05936L8.72857 8.36823C8.72857 8.48321 8.75122 8.59706 8.79522 8.70328C8.83922 8.80951 8.90371 8.90603 8.98501 8.98733C9.06631 9.06863 9.16283 9.13312 9.26906 9.17712C9.37528 9.22112 9.48913 9.24377 9.60411 9.24377C9.71909 9.24377 9.83294 9.22112 9.93916 9.17712C10.0454 9.13312 10.1419 9.06863 10.2232 8.98733C10.3045 8.90603 10.369 8.80951 10.413 8.70328C10.457 8.59706 10.4796 8.48321 10.4796 8.36823L10.4796 0.948425C10.4798 0.833406 10.4572 0.719489 10.4133 0.613198C10.3693 0.506907 10.3049 0.410332 10.2235 0.329002C10.1422 0.247672 10.0456 0.183185 9.93934 0.139237C9.83305 0.0952886 9.71913 0.0727415 9.60411 0.0728872H2.1843C1.9521 0.0728872 1.7294 0.165131 1.56521 0.329326C1.40101 0.493521 1.30877 0.716218 1.30877 0.948425C1.30877 1.18063 1.40101 1.40333 1.56521 1.56752C1.7294 1.73172 1.9521 1.82396 2.1843 1.82396L7.49318 1.82272L0.329352 8.98655C0.165365 9.15054 0.073237 9.37295 0.0732366 9.60487C0.0732366 9.83678 0.165364 10.0592 0.329352 10.2232Z" fill="#555555"/>
</svg>
