<svg width="18" height="18" viewBox="0 0 18 18" fill="none" xmlns="http://www.w3.org/2000/svg">
<path d="M0.186946 0.188532C0.246652 0.128765 0.317555 0.0813503 0.3956 0.0490017C0.473645 0.0166512 0.557301 0 0.641786 0C0.726271 0 0.809927 0.0166512 0.887972 0.0490017C0.966017 0.0813503 1.03692 0.128765 1.09663 0.188532L8.99767 8.08887L16.9019 0.188532C17.0226 0.0679131 17.1862 0.000148773 17.3568 0.000148773C17.5274 0.000148773 17.691 0.0679131 17.8116 0.188532C17.9322 0.309153 18 0.47275 18 0.643333C18 0.813915 17.9322 0.97751 17.8116 1.09813L9.90735 8.99847L17.8084 16.902C17.929 17.0226 17.9968 17.1862 17.9968 17.3568C17.9968 17.5274 17.929 17.691 17.8084 17.8116C17.6878 17.9322 17.5241 18 17.3535 18C17.1829 18 17.0193 17.9322 16.8987 17.8116L8.99767 9.90807L1.09341 17.8084C0.970427 17.9137 0.812229 17.9687 0.650431 17.9625C0.488632 17.9562 0.335151 17.8892 0.220656 17.7747C0.106162 17.6602 0.039089 17.5067 0.0328394 17.345C0.0265898 17.1832 0.0816246 17.025 0.186946 16.902L8.08799 8.99847L0.186946 1.09492C0.0672082 0.974476 0 0.81155 0 0.641726C0 0.471899 0.0672082 0.308973 0.186946 0.188532Z" fill="white"/>
</svg>
