<svg width="339" height="87" viewBox="0 0 339 87" fill="none" xmlns="http://www.w3.org/2000/svg">
<rect width="87" height="87" rx="18" fill="#3E50EB"/>
<g clip-path="url(#clip0_1194_644)">
<path d="M68.3436 43.5C68.3438 45.7931 67.6639 48.0348 66.39 49.9416C65.1161 51.8483 63.3053 53.3344 61.1867 54.212C59.0681 55.0896 56.7369 55.3192 54.4878 54.8718C52.2387 54.4243 50.1729 53.32 48.5514 51.6984L48.4893 51.6156L36.0674 37.6203C35.3044 36.8556 34.3975 36.2496 33.3989 35.8374C32.4004 35.4252 31.3301 35.215 30.2499 35.2187C28.0535 35.2187 25.9472 36.0912 24.3941 37.6443C22.8411 39.1973 21.9686 41.3037 21.9686 43.5C21.9686 45.6963 22.8411 47.8027 24.3941 49.3557C25.9472 50.9088 28.0535 51.7812 30.2499 51.7812C31.3301 51.785 32.4004 51.5747 33.3989 51.1625C34.3975 50.7503 35.3044 50.1444 36.0674 49.3797L37.8272 47.3922C38.1182 47.0627 38.5282 46.8624 38.9669 46.8352C39.4057 46.808 39.8372 46.9562 40.1667 47.2473C40.4961 47.5383 40.6965 47.9482 40.7236 48.387C40.7508 48.8257 40.6026 49.2573 40.3116 49.5867L38.5104 51.6156L38.4483 51.6984C37.3717 52.7751 36.0936 53.6292 34.6869 54.2119C33.2802 54.7947 31.7725 55.0946 30.2499 55.0946C28.7273 55.0946 27.2196 54.7947 25.8129 54.2119C24.4062 53.6292 23.128 52.7751 22.0514 51.6984C20.4298 50.077 19.3255 48.0111 18.8781 45.762C18.4307 43.513 18.6603 41.1817 19.5378 39.0631C20.4154 36.9446 21.9015 35.1338 23.8083 33.8599C25.715 32.5859 27.9567 31.9061 30.2499 31.9062C31.7733 31.9004 33.2826 32.1976 34.6901 32.7805C36.0976 33.3634 37.3751 34.2204 38.4483 35.3016L38.5104 35.3844L50.9323 49.3797C51.6953 50.1444 52.6023 50.7503 53.6008 51.1625C54.5993 51.5747 55.6696 51.785 56.7499 51.7812C58.9462 51.7812 61.0526 50.9088 62.6056 49.3557C64.1586 47.8027 65.0311 45.6963 65.0311 43.5C65.0311 41.3037 64.1586 39.1973 62.6056 37.6443C61.0526 36.0912 58.9462 35.2187 56.7499 35.2187C55.6696 35.215 54.5993 35.4252 53.6008 35.8374C52.6023 36.2496 51.6953 36.8556 50.9323 37.6203L49.1725 39.6078C48.8815 39.9372 48.4715 40.1376 48.0328 40.1648C47.5941 40.192 47.1625 40.0437 46.8331 39.7527C46.5036 39.4617 46.3033 39.0517 46.2761 38.613C46.2489 38.1743 46.3971 37.7427 46.6882 37.4133L48.4893 35.3844L48.5514 35.3016C50.1729 33.68 52.2387 32.5756 54.4878 32.1282C56.7369 31.6808 59.0681 31.9104 61.1867 32.788C63.3053 33.6655 65.1161 35.1517 66.39 37.0584C67.6639 38.9651 68.3438 41.2068 68.3436 43.5Z" fill="white"/>
</g>
<path d="M116.52 53V27.24H120.88V53H116.52ZM134.934 53V27.24H138.774L152.214 46.2V27.24H156.534V53H152.694L139.294 34.08V53H134.934ZM170.614 53V27.24H188.134V30.64H174.974V38.44H186.654V41.8H174.974V53H170.614ZM200.59 53V27.24H204.95V53H200.59ZM219.004 53V27.24H222.844L236.284 46.2V27.24H240.604V53H236.764L223.364 34.08V53H219.004ZM254.684 53V27.24H259.044V53H254.684ZM279.778 53V30.64H271.538V27.24H292.338V30.64H284.138V53H279.778ZM304.833 53V27.24H322.793V30.64H309.193V38.44H321.313V41.8H309.193V49.64H322.793V53H304.833Z" fill="#181818"/>
<path d="M286.616 72L290.06 62.984H291.768L295.184 72H293.616L292.72 69.676H289.094L288.198 72H286.616ZM289.332 68.5H292.468L290.9 64.37L289.332 68.5ZM300.119 72.14C298.635 72.14 297.515 71.7387 296.759 70.936C296.012 70.1333 295.639 69.046 295.639 67.674C295.639 66.6847 295.802 65.8307 296.129 65.112C296.456 64.384 296.95 63.824 297.613 63.432C298.285 63.04 299.134 62.844 300.161 62.844C300.693 62.844 301.174 62.8813 301.603 62.956C302.042 63.0213 302.452 63.1193 302.835 63.25V64.566C302.07 64.286 301.22 64.146 300.287 64.146C299.139 64.146 298.332 64.4493 297.865 65.056C297.408 65.6627 297.179 66.5353 297.179 67.674C297.179 68.71 297.422 69.4987 297.907 70.04C298.392 70.5813 299.144 70.852 300.161 70.852C300.964 70.852 301.612 70.7587 302.107 70.572V68.052H299.853V67.058H303.409V71.398C303.12 71.5847 302.704 71.7573 302.163 71.916C301.631 72.0653 300.95 72.14 300.119 72.14ZM304.888 72V62.984H311.174V64.174H306.414V66.904H310.656V68.08H306.414V70.824H311.174V72H304.888ZM312.585 72V62.984H313.929L318.633 69.62V62.984H320.145V72H318.801L314.111 65.378V72H312.585ZM326.151 72.14C324.667 72.14 323.542 71.734 322.777 70.922C322.021 70.11 321.643 69.0133 321.643 67.632C321.643 66.6427 321.802 65.7933 322.119 65.084C322.446 64.3653 322.94 63.8147 323.603 63.432C324.266 63.04 325.11 62.844 326.137 62.844C326.66 62.844 327.136 62.886 327.565 62.97C328.004 63.0447 328.41 63.1473 328.783 63.278V64.608C328.41 64.4587 328.008 64.3467 327.579 64.272C327.159 64.188 326.716 64.146 326.249 64.146C325.129 64.146 324.336 64.4447 323.869 65.042C323.412 65.6393 323.183 66.5027 323.183 67.632C323.183 68.6867 323.435 69.4893 323.939 70.04C324.443 70.5813 325.222 70.852 326.277 70.852C326.706 70.852 327.136 70.8193 327.565 70.754C328.004 70.6793 328.414 70.5673 328.797 70.418V71.762C328.424 71.8833 328.018 71.9767 327.579 72.042C327.15 72.1073 326.674 72.14 326.151 72.14ZM332.875 72V68.654L329.641 62.984H331.223L333.631 67.366L336.039 62.984H337.621L334.387 68.654V72H332.875Z" fill="#181818"/>
<defs>
<clipPath id="clip0_1194_644">
<rect width="53" height="53" fill="white" transform="translate(17 17)"/>
</clipPath>
</defs>
</svg>
