<svg width="290" height="76" viewBox="0 0 290 76" fill="none" xmlns="http://www.w3.org/2000/svg">
<g clip-path="url(#clip0_1230_519)">
<path d="M59.0266 0.893799H15.3982C6.89402 0.893799 0 7.78782 0 16.292V59.9203C0 68.4246 6.89402 75.3186 15.3982 75.3186H59.0266C67.5308 75.3186 74.4248 68.4246 74.4248 59.9203V16.292C74.4248 7.78782 67.5308 0.893799 59.0266 0.893799Z" fill="#3E50EB"/>
<mask id="mask0_1230_519" style="mask-type:luminance" maskUnits="userSpaceOnUse" x="14" y="15" width="46" height="46">
<path d="M59.882 15.4365H14.5427V60.7758H59.882V15.4365Z" fill="white"/>
</mask>
<g mask="url(#mask0_1230_519)">
<path d="M58.465 38.1062C58.4651 40.0678 57.8835 41.9855 56.7937 43.6167C55.704 45.2478 54.1549 46.5191 52.3425 47.2699C50.5302 48.0206 48.5359 48.217 46.6119 47.8343C44.6879 47.4515 42.9207 46.5068 41.5336 45.1196L41.4805 45.0487L30.8541 33.0764C30.2013 32.4222 29.4255 31.9038 28.5713 31.5512C27.7171 31.1985 26.8015 31.0187 25.8774 31.0219C23.9985 31.0219 22.1967 31.7683 20.868 33.0969C19.5395 34.4254 18.7931 36.2274 18.7931 38.1062C18.7931 39.985 19.5395 41.787 20.868 43.1155C22.1967 44.4441 23.9985 45.1904 25.8774 45.1904C26.8015 45.1937 27.7171 45.0138 28.5713 44.6611C29.4255 44.3085 30.2013 43.7902 30.8541 43.136L32.3595 41.4358C32.6084 41.1539 32.9592 40.9826 33.3345 40.9593C33.7098 40.936 34.079 41.0628 34.3608 41.3118C34.6426 41.5608 34.8141 41.9114 34.8372 42.2868C34.8605 42.6621 34.7337 43.0313 34.4848 43.3131L32.9439 45.0487L32.8908 45.1196C31.9698 46.0406 30.8765 46.7713 29.6731 47.2698C28.4697 47.7683 27.18 48.0249 25.8774 48.0249C24.5749 48.0249 23.2851 47.7683 22.0818 47.2698C20.8784 46.7713 19.785 46.0406 18.864 45.1196C17.4768 43.7325 16.5321 41.9652 16.1493 40.0412C15.7666 38.1173 15.963 36.123 16.7137 34.3106C17.4644 32.4983 18.7357 30.9493 20.3669 29.8595C21.998 28.7696 23.9157 28.1881 25.8774 28.1882C27.1806 28.1832 28.4718 28.4375 29.6758 28.9361C30.8799 29.4348 31.9727 30.1679 32.8908 31.0928L32.9439 31.1636L43.5703 43.136C44.2231 43.7902 44.999 44.3085 45.8531 44.6611C46.7073 45.0138 47.6229 45.1937 48.5471 45.1904C50.4259 45.1904 52.2278 44.4441 53.5563 43.1155C54.8849 41.787 55.6313 39.985 55.6313 38.1062C55.6313 36.2274 54.8849 34.4254 53.5563 33.0969C52.2278 31.7683 50.4259 31.0219 48.5471 31.0219C47.6229 31.0187 46.7073 31.1985 45.8531 31.5512C44.999 31.9038 44.2231 32.4222 43.5703 33.0764L42.0649 34.7766C41.816 35.0584 41.4652 35.2298 41.0899 35.2531C40.7147 35.2763 40.3454 35.1495 40.0637 34.9005C39.7818 34.6516 39.6104 34.3009 39.5872 33.9256C39.5639 33.5503 39.6907 33.1811 39.9397 32.8993L41.4805 31.1636L41.5336 31.0928C42.9207 29.7056 44.6879 28.7608 46.6119 28.3781C48.5359 27.9954 50.5302 28.1918 52.3425 28.9425C54.1549 29.6932 55.704 30.9646 56.7937 32.5957C57.8835 34.2268 58.4651 36.1445 58.465 38.1062Z" fill="white"/>
</g>
<path d="M99.678 46.233V24.1964H103.408V46.233H99.678ZM115.43 46.233V24.1964H118.715L130.213 40.4159V24.1964H133.908V46.233H130.623L119.16 30.0477V46.233H115.43ZM145.953 46.233V24.1964H160.941V27.105H149.683V33.7775H159.675V36.6519H149.683V46.233H145.953ZM171.596 46.233V24.1964H175.326V46.233H171.596ZM187.349 46.233V24.1964H190.634L202.131 40.4159V24.1964H205.827V46.233H202.542L191.078 30.0477V46.233H187.349ZM217.871 46.233V24.1964H221.601V46.233H217.871ZM239.338 46.233V27.105H232.289V24.1964H250.083V27.105H243.068V46.233H239.338ZM260.772 46.233V24.1964H276.136V27.105H264.501V33.7775H274.87V36.6519H264.501V43.3587H276.136V46.233H260.772Z" fill="white"/>
<path d="M245.188 62.4867L248.134 54.7739H249.595L252.517 62.4867H251.176L250.409 60.4987H247.308L246.541 62.4867H245.188ZM247.511 59.4926H250.194L248.853 55.9596L247.511 59.4926ZM256.739 62.6065C255.469 62.6065 254.511 62.2632 253.865 61.5765C253.226 60.8899 252.907 59.9597 252.907 58.786C252.907 57.9397 253.046 57.2092 253.326 56.5943C253.605 55.9716 254.028 55.4925 254.595 55.1572C255.17 54.8218 255.896 54.6542 256.775 54.6542C257.23 54.6542 257.641 54.6861 258.008 54.75C258.384 54.8058 258.735 54.8897 259.062 55.0015V56.1273C258.408 55.8877 257.681 55.768 256.883 55.768C255.901 55.768 255.21 56.0274 254.811 56.5464C254.42 57.0655 254.224 57.8119 254.224 58.786C254.224 59.6723 254.432 60.347 254.847 60.81C255.262 61.2731 255.905 61.5047 256.775 61.5047C257.462 61.5047 258.016 61.4249 258.44 61.2651V59.1094H256.511V58.2591H259.553V61.9718C259.306 62.1315 258.95 62.2791 258.488 62.4149C258.032 62.5426 257.45 62.6065 256.739 62.6065ZM260.819 62.4867V54.7739H266.196V55.7919H262.124V58.1273H265.753V59.1333H262.124V61.4807H266.196V62.4867H260.819ZM267.403 62.4867V54.7739H268.553L272.577 60.4508V54.7739H273.87V62.4867H272.721L268.709 56.8219V62.4867H267.403ZM279.008 62.6065C277.739 62.6065 276.776 62.2592 276.122 61.5646C275.475 60.8699 275.152 59.9317 275.152 58.7501C275.152 57.9038 275.288 57.1772 275.559 56.5704C275.839 55.9556 276.261 55.4846 276.829 55.1572C277.396 54.8218 278.118 54.6542 278.996 54.6542C279.444 54.6542 279.851 54.6901 280.218 54.762C280.593 54.8259 280.941 54.9136 281.26 55.0254V56.1632C280.941 56.0355 280.597 55.9397 280.23 55.8758C279.871 55.8039 279.492 55.768 279.092 55.768C278.134 55.768 277.456 56.0235 277.056 56.5345C276.665 57.0454 276.469 57.784 276.469 58.7501C276.469 59.6524 276.685 60.3389 277.116 60.81C277.547 61.2731 278.214 61.5047 279.116 61.5047C279.483 61.5047 279.851 61.4767 280.218 61.4208C280.593 61.3569 280.944 61.2611 281.272 61.1334V62.2831C280.953 62.3869 280.605 62.4668 280.23 62.5227C279.863 62.5785 279.456 62.6065 279.008 62.6065ZM284.76 62.4867V59.6244L281.994 54.7739H283.347L285.407 58.5225L287.467 54.7739H288.82L286.054 59.6244V62.4867H284.76Z" fill="white"/>
</g>
<defs>
<clipPath id="clip0_1230_519">
<rect width="290" height="74.4248" fill="white" transform="translate(0 0.893799)"/>
</clipPath>
</defs>
</svg>
