<svg width="87" height="87" viewBox="0 0 87 87" fill="none" xmlns="http://www.w3.org/2000/svg">
<rect width="87" height="87" rx="18" fill="#3E50EB"/>
<g clip-path="url(#clip0_1194_645)">
<path d="M68.3436 43.5C68.3438 45.7931 67.6639 48.0348 66.39 49.9416C65.1161 51.8483 63.3053 53.3344 61.1867 54.212C59.0681 55.0896 56.7369 55.3192 54.4878 54.8718C52.2387 54.4243 50.1729 53.32 48.5514 51.6984L48.4893 51.6156L36.0674 37.6203C35.3044 36.8556 34.3975 36.2496 33.3989 35.8374C32.4004 35.4252 31.3301 35.215 30.2499 35.2187C28.0535 35.2187 25.9472 36.0912 24.3941 37.6443C22.8411 39.1973 21.9686 41.3037 21.9686 43.5C21.9686 45.6963 22.8411 47.8027 24.3941 49.3557C25.9472 50.9088 28.0535 51.7812 30.2499 51.7812C31.3301 51.785 32.4004 51.5747 33.3989 51.1625C34.3975 50.7503 35.3044 50.1444 36.0674 49.3797L37.8272 47.3922C38.1182 47.0627 38.5282 46.8624 38.9669 46.8352C39.4057 46.808 39.8372 46.9562 40.1667 47.2473C40.4961 47.5383 40.6965 47.9482 40.7236 48.387C40.7508 48.8257 40.6026 49.2573 40.3116 49.5867L38.5104 51.6156L38.4483 51.6984C37.3717 52.7751 36.0936 53.6292 34.6869 54.2119C33.2802 54.7947 31.7725 55.0946 30.2499 55.0946C28.7273 55.0946 27.2196 54.7947 25.8129 54.2119C24.4062 53.6292 23.128 52.7751 22.0514 51.6984C20.4298 50.077 19.3255 48.0111 18.8781 45.762C18.4307 43.513 18.6603 41.1817 19.5378 39.0631C20.4154 36.9446 21.9015 35.1338 23.8083 33.8599C25.715 32.5859 27.9567 31.9061 30.2499 31.9062C31.7733 31.9004 33.2826 32.1976 34.6901 32.7805C36.0976 33.3634 37.3751 34.2204 38.4483 35.3016L38.5104 35.3844L50.9323 49.3797C51.6953 50.1444 52.6023 50.7503 53.6008 51.1625C54.5993 51.5747 55.6696 51.785 56.7499 51.7812C58.9462 51.7812 61.0526 50.9088 62.6056 49.3557C64.1586 47.8027 65.0311 45.6963 65.0311 43.5C65.0311 41.3037 64.1586 39.1973 62.6056 37.6443C61.0526 36.0912 58.9462 35.2187 56.7499 35.2187C55.6696 35.215 54.5993 35.4252 53.6008 35.8374C52.6023 36.2496 51.6953 36.8556 50.9323 37.6203L49.1725 39.6078C48.8815 39.9372 48.4715 40.1376 48.0328 40.1648C47.5941 40.192 47.1625 40.0437 46.8331 39.7527C46.5036 39.4617 46.3033 39.0517 46.2761 38.613C46.2489 38.1743 46.3971 37.7427 46.6882 37.4133L48.4893 35.3844L48.5514 35.3016C50.1729 33.68 52.2387 32.5756 54.4878 32.1282C56.7369 31.6808 59.0681 31.9104 61.1867 32.788C63.3053 33.6655 65.1161 35.1517 66.39 37.0584C67.6639 38.9651 68.3438 41.2068 68.3436 43.5Z" fill="white"/>
</g>
<defs>
<clipPath id="clip0_1194_645">
<rect width="53" height="53" fill="white" transform="translate(17 17)"/>
</clipPath>
</defs>
</svg>
