<svg width="403" height="35" viewBox="0 0 403 35" fill="none" xmlns="http://www.w3.org/2000/svg">
<g clip-path="url(#clip0_1198_715)">
<path d="M8.74363 14.7278C11.8989 14.7278 15.2044 14.5837 18.3596 14.4395C19.7119 14.4395 20.9139 14.2954 22.2661 14.2954C27.9756 14.0072 33.6852 13.719 39.3947 13.4308C46.3062 13.1426 53.0674 12.7103 59.9789 12.4221C69.7452 11.8457 79.5114 11.4134 89.2777 10.837C91.5315 10.6929 93.7852 10.6929 96.039 10.5487C101.748 10.2605 107.458 9.97233 113.167 9.82823C118.877 9.54002 124.586 9.25181 130.296 9.10771C132.55 8.96361 134.803 8.8195 137.057 8.8195C146.072 8.5313 155.238 8.24309 164.253 7.95488C169.812 7.81078 175.371 7.66667 181.081 7.37847C183.334 7.37847 185.438 7.23436 187.692 7.23436C196.406 7.09026 205.271 6.94615 213.985 6.80205C222.7 6.65795 231.264 6.51384 239.979 6.36974C242.232 6.36974 244.486 6.36974 246.89 6.36974C252.6 6.36974 258.159 6.36974 263.868 6.36974C272.733 6.36974 281.448 6.36974 290.312 6.22564C293.167 6.22564 296.022 6.22564 298.877 6.22564C304.887 6.22564 310.897 6.22564 316.907 6.22564C317.357 6.22564 317.958 6.22564 318.409 6.22564C304.887 6.36974 291.214 6.51384 277.691 6.80205C271.982 6.94615 266.423 6.94615 260.713 7.09026C258.309 7.09026 255.755 7.09026 253.351 7.23436C245.087 7.37847 236.974 7.66667 228.71 7.81078C219.244 8.09898 209.778 8.24309 200.313 8.5313C198.66 8.5313 197.157 8.6754 195.505 8.6754C190.396 8.96361 185.438 9.10771 180.329 9.39592C170.112 9.82823 159.895 10.2605 149.678 10.6929C148.176 10.6929 146.673 10.837 145.171 10.9811C140.212 11.2693 135.104 11.7016 130.146 11.9898C121.131 12.5662 112.266 13.1426 103.251 13.719C100.847 13.8631 98.2927 14.1513 95.8887 14.2954C90.1792 14.7278 84.4697 15.1601 78.7602 15.7365C71.5482 16.3129 64.1859 16.8893 56.9739 17.4657C46.9072 18.3303 36.6902 19.195 26.6234 20.0596C24.2194 20.2037 21.8154 20.4919 19.2611 20.636C14.9039 21.0683 10.5466 21.5006 6.18938 21.9329C5.73863 21.9329 5.28788 22.2211 5.28788 22.7976C5.28788 23.2299 5.73863 23.6622 6.18938 23.6622C7.84213 23.6622 9.34463 23.8063 10.9974 23.8063C10.6969 24.5268 10.5466 24.9591 10.5466 25.3914C10.5466 26.9766 11.8989 28.4176 13.7019 28.4176C26.1726 27.6971 38.4932 26.8325 50.9639 26.2561C61.7819 25.8237 72.5999 25.2473 83.4179 24.815C95.2877 24.2386 107.308 23.6622 119.177 23.2299C122.934 23.0858 126.69 22.9417 130.446 22.6535C131.498 22.6535 132.55 22.5094 133.752 22.5094C152.984 22.077 172.216 21.5006 191.448 21.0683C201.665 20.7801 212.032 20.4919 222.249 20.3478C226.005 20.2037 229.611 20.2037 233.368 20.0596C253.05 19.7714 272.733 19.4832 292.416 19.195C300.83 19.0509 309.244 18.9068 317.658 18.7627C324.87 18.6186 332.082 18.6186 339.294 18.3303C345.304 18.1862 351.164 17.898 357.174 17.7539C360.179 17.6098 363.184 17.6098 366.038 17.4657C372.8 17.0334 379.561 16.6011 386.322 16.1688C385.871 16.7452 385.871 17.6098 386.022 18.1862C386.172 18.9068 386.623 19.4832 387.374 19.7714C387.975 20.0596 388.876 20.3478 389.477 20.0596C390.98 19.4832 392.482 18.9068 393.835 18.3303C393.835 18.3303 393.835 18.3303 393.684 18.3303C393.835 18.3303 393.835 18.1862 393.985 18.1862C394.135 18.1862 394.285 18.0421 394.285 18.0421H394.135C394.886 17.7539 395.638 17.4657 396.539 17.0334C397.29 16.7452 398.192 16.3129 398.943 16.0247C399.845 15.5924 400.596 15.1601 401.497 14.7278C402.399 14.2954 403 13.1426 403 12.1339C403 11.5575 402.85 11.1252 402.549 10.5487C402.249 9.97233 401.497 9.25181 400.746 9.10771C399.995 8.96361 399.244 8.8195 398.492 8.8195C398.342 8.8195 398.192 8.8195 398.042 8.8195C397.591 8.8195 396.99 8.8195 396.539 8.96361C395.337 9.10771 394.285 9.25181 393.083 9.25181C392.182 9.25181 391.28 9.39592 390.229 9.39592C387.674 9.54002 385.27 9.68412 382.716 9.97233C382.115 9.97233 381.364 10.1164 380.763 10.1164C381.063 9.82823 381.214 9.54002 381.214 9.25181C381.364 8.96361 381.364 8.6754 381.364 8.38719C381.364 8.24309 381.364 7.95488 381.514 7.81078C381.514 7.52257 381.514 7.23436 381.364 7.09026C381.364 7.09026 381.514 7.09026 381.514 6.94615C381.965 6.65795 382.416 6.36974 382.716 5.79332C383.017 5.36101 383.167 4.7846 383.167 4.20818C383.167 3.63177 383.017 3.19946 382.716 2.62304C382.566 2.47894 382.416 2.19073 382.265 2.04663C381.815 1.61432 381.364 1.47021 380.913 1.32611C380.012 1.0379 378.96 0.893799 377.908 0.893799C377.007 0.893799 376.255 0.893799 375.354 0.893799C374.152 0.893799 372.95 0.893799 371.748 0.893799C370.095 0.893799 368.292 0.893799 366.639 0.893799C362.132 0.893799 357.624 0.893799 353.117 0.893799C348.91 0.893799 344.553 0.893799 340.346 0.893799C336.439 0.893799 332.683 0.893799 328.776 0.893799C313.301 0.893799 297.975 1.0379 282.499 1.18201C270.93 1.32611 259.361 1.47021 247.792 1.47021C242.683 1.47021 237.424 1.61432 232.316 1.75842C220.747 2.04663 209.177 2.19073 197.608 2.47894C194.303 2.47894 190.997 2.62304 187.692 2.62304C185.738 2.62304 183.935 2.76715 181.982 2.76715C170.563 3.19946 159.144 3.63177 147.725 4.06408C144.269 4.20818 140.813 4.35229 137.207 4.49639C135.254 4.49639 133.301 4.6405 131.348 4.7846C119.929 5.36101 108.66 5.93743 97.241 6.51384C91.3812 6.80205 85.5214 7.09026 79.6617 7.52257C69.5949 8.09898 59.5282 8.6754 49.6117 9.39592C40.8972 9.97233 32.1827 10.4046 23.4681 10.837C22.1159 10.9811 20.7636 10.9811 19.2611 11.1252C17.0074 11.2693 14.7536 11.2693 12.4999 11.4134C10.5466 11.9898 8.44313 11.9898 6.48988 11.9898C6.33963 11.4134 5.73863 10.9811 5.28788 11.1252C3.93562 11.1252 2.73362 11.2693 1.38137 11.4134C0.780371 11.5575 0.179371 11.8457 0.0291207 12.4221C-0.121129 13.1426 0.329621 13.8631 0.930622 14.0072C1.53162 14.1513 2.13262 14.2954 2.73362 14.4395C3.33462 14.5837 3.78537 14.5837 4.38637 14.5837C5.88888 14.7278 7.24113 14.7278 8.74363 14.7278ZM360.329 10.1164C362.132 10.1164 364.085 10.1164 365.888 10.1164C366.038 10.5487 366.339 10.837 366.639 11.1252C365.888 11.1252 365.137 11.2693 364.536 11.2693C363.184 11.2693 361.831 11.4134 360.479 11.4134C354.469 11.5575 348.609 11.8457 342.599 11.9898C339.895 12.1339 337.19 12.278 334.486 12.278C330.279 12.278 325.922 12.4221 321.715 12.4221C311.948 12.5662 302.332 12.7103 292.566 12.8544C273.635 13.1426 254.853 13.4308 235.922 13.719C222.399 13.8631 208.877 14.2954 195.354 14.7278C175.071 15.3042 154.637 15.7365 134.353 16.3129C130.296 16.457 126.239 16.6011 122.182 16.8893C110.613 17.4657 99.044 17.898 87.4747 18.4745C76.2059 19.0509 64.7869 19.4832 53.5182 20.0596C52.4664 20.0596 51.4147 20.2037 50.3629 20.2037C53.3679 19.9155 56.5232 19.7714 59.5282 19.4832C70.1959 18.7627 80.8637 17.898 91.5315 17.1775C95.2877 16.8893 99.044 16.6011 102.65 16.3129C104.603 16.1688 106.556 16.0247 108.359 16.0247C119.628 15.4483 130.747 14.7278 141.865 14.1513C143.969 14.0072 146.222 13.8631 148.326 13.719C151.481 13.5749 154.637 13.4308 157.642 13.4308C169.061 12.9985 180.48 12.5662 191.899 12.1339C194.453 11.9898 197.007 11.9898 199.411 11.8457C200.012 11.8457 200.763 11.8457 201.364 11.8457C203.167 11.8457 204.97 11.8457 206.623 11.7016C218.042 11.4134 229.611 11.2693 241.03 10.9811C246.289 10.837 251.548 10.6929 256.807 10.6929C273.785 10.5487 290.913 10.4046 307.892 10.2605C325.621 10.2605 343.05 10.1164 360.329 10.1164Z" fill="#FFE45E"/>
<path d="M31.2531 34.8938C31.7073 34.8938 32.0756 34.5314 32.0756 34.0843C32.0756 33.6372 31.7073 33.2747 31.2531 33.2747C30.7989 33.2747 30.4307 33.6372 30.4307 34.0843C30.4307 34.5314 30.7989 34.8938 31.2531 34.8938Z" fill="#FFE45E"/>
</g>
<defs>
<clipPath id="clip0_1198_715">
<rect width="403" height="34" fill="white" transform="translate(0 0.893799)"/>
</clipPath>
</defs>
</svg>
